<svg width="352" height="352" xmlns="http://www.w3.org/2000/svg" xmlns:svg="http://www.w3.org/2000/svg">
 <!-- Created with SVG-edit - http://svg-edit.googlecode.com/ -->
 <g display="inline">
  <title>Layer 1</title>
  <polygon id="svg_58" fill="#000000"/>
  <polygon id="svg_59" fill="#000000"/>
  <rect fill-opacity="0.99" stroke="#333333" id="svg_35" height="346" width="346" y="2" x="2" stroke-linecap="null" stroke-linejoin="bevel" stroke-width="8" fill="#3f3f3f"/>
  <path stroke="#2b2727" id="svg_37" d="m282.21695,281.87098c0,3.54896 -2.90445,6.42423 -6.48944,6.42423l-41.55664,0c-3.58498,0 -6.48943,-2.87526 -6.48943,-6.42423l0,-87.40141c0,-3.54868 2.90445,-6.42423 6.48943,-6.42423l41.55664,0c3.585,0 6.48944,2.87555 6.48944,6.42423l0,87.40141zm-153.85418,0c0,3.54896 -2.90502,6.42423 -6.48944,6.42423l-41.55721,0c-3.58442,0 -6.48943,-2.87526 -6.48943,-6.42423l0,-87.40141c0,-3.54868 2.90501,-6.42423 6.48943,-6.42423l41.55721,0c3.58442,0 6.48944,2.87555 6.48944,6.42423l0,87.40141zm50.20605,-236.99794c-75.19884,0 -136.24287,59.88416 -137.18036,134.10023l23.80733,0c0.77198,-61.3404 51.22657,-110.83287 113.37303,-110.83287c62.14645,0 112.60107,49.49247 113.36402,110.83287l23.80678,0c-0.92794,-74.21607 -61.98993,-134.10023 -137.17081,-134.10023l0.00001,0zm-136.98736,202.08287l23.37533,0l0,-68.11926l-23.37533,0l0,68.11926zm250.15841,-68.12843l0,68.11955l24.23875,0l0,-68.11955l-24.23875,0z" stroke-linecap="null" stroke-linejoin="bevel" stroke-width="8" fill="#ffffff"/>
 </g>
</svg>
